<svg width="14" height="19" viewBox="0 0 14 19" fill="none" xmlns="http://www.w3.org/2000/svg">
<path d="M6.70588 0C3.00826 0 0 2.99651 0 6.67969C0 7.92411 0.346061 9.13855 1.001 10.1922L6.32417 18.7369C6.42614 18.9005 6.60578 19 6.79898 19C6.80047 19 6.80193 19 6.80342 19C6.9983 18.9985 7.17831 18.8959 7.27842 18.7294L12.4659 10.1019C13.0847 9.07057 13.4118 7.88719 13.4118 6.67969C13.4118 2.99651 10.4035 0 6.70588 0ZM11.5068 9.53036L6.79053 17.3741L1.95093 9.60561C1.40578 8.72864 1.1102 7.71689 1.1102 6.67969C1.1102 3.61037 3.62453 1.10586 6.70588 1.10586C9.78724 1.10586 12.2978 3.61037 12.2978 6.67969C12.2978 7.68613 12.0217 8.67202 11.5068 9.53036Z" fill="white"/>
<path d="M6.70588 3.33984C4.85707 3.33984 3.35294 4.8381 3.35294 6.67969C3.35294 8.50951 4.83259 10.0195 6.70588 10.0195C8.60226 10.0195 10.0588 8.4894 10.0588 6.67969C10.0588 4.8381 8.55469 3.33984 6.70588 3.33984ZM6.70588 8.91367C5.46689 8.91367 4.46313 7.91049 4.46313 6.67969C4.46313 5.45196 5.47334 4.4457 6.70588 4.4457C7.93842 4.4457 8.9449 5.45196 8.9449 6.67969C8.9449 7.89253 7.9645 8.91367 6.70588 8.91367Z" fill="white"/>
</svg>
