<svg width="30" height="32" viewBox="0 0 30 32" fill="none" xmlns="http://www.w3.org/2000/svg">
<path d="M4.54877 14.5631C4.79583 14.4271 5.05036 14.301 5.31626 14.1897C6.36966 13.7496 7.55287 13.5259 8.8315 13.5259C9.54089 13.5259 10.2305 13.5968 10.8839 13.7061L6.97441 11.0488L13.3646 14.3331C13.8195 14.488 14.2142 14.6425 14.5326 14.7769C14.5337 14.7738 14.5352 14.7695 14.5368 14.7652C14.1185 13.0911 12.9133 9.47597 10.0257 7.76073C8.60892 6.91948 6.98585 6.65474 5.50368 6.65474C2.98115 6.65474 0.865906 7.42147 0.865906 7.42147C0.865906 7.42147 1.5875 12.0014 4.54877 14.5631Z" fill="#BDBDBD"/>
<path d="M6.55248 19.6624L10.7887 17.5792C11.7589 16.6271 12.7191 15.9317 13.3338 15.5311C12.2013 15.1193 10.5641 14.6656 8.83102 14.6656C7.80852 14.6656 6.75295 14.8232 5.75298 15.2416C1.64658 16.9574 -2.44798e-08 22.3996 -2.44798e-08 22.3996C-2.44798e-08 22.3996 2.86599 23.9209 6.03883 23.9209C6.52842 23.9209 7.02568 23.8821 7.52058 23.7981C7.54457 23.5434 7.57289 23.2882 7.62158 23.0314C7.96134 21.2368 8.89066 19.7081 9.93792 18.485L6.55248 19.6624Z" fill="#E0E0E0"/>
<path d="M12.8573 25.0053L13.9379 16.4973C12.5939 17.3779 9.39023 19.7974 8.73727 23.244C7.90694 27.6274 11.5332 32 11.5332 32C11.5332 32 16.3538 29.3399 17.2877 25.0678C15.4604 23.1091 14.7594 20.4607 14.5002 18.517L12.8573 25.0053Z" fill="#DF427A"/>
<path d="M24.392 18.1941C24.2444 18.0602 24.0832 17.951 23.9271 17.8312C23.0459 18.098 22.0931 18.2408 21.071 18.2408C19.9966 18.2408 18.9788 18.0869 18.0788 17.8874L22.1575 22.0865L16.35 17.41C16.0234 17.3003 15.7306 17.1952 15.507 17.1059C15.6054 18.9035 16.1086 22.5034 18.5071 24.6898C20.6395 26.6328 23.7443 26.9753 25.668 26.9753C26.7146 26.9753 27.4115 26.8738 27.4115 26.8738C27.4115 26.8738 27.6838 21.1938 24.392 18.1941Z" fill="#333333"/>
<path d="M23.5658 12.0066L16.9395 15.6103C16.6459 15.8382 16.3919 16.0167 16.194 16.148C17.202 16.5276 19.0507 17.1017 21.0711 17.1017C22.2246 17.1017 23.4271 16.9126 24.5455 16.3901C28.578 14.5069 30 9.00063 30 9.00063C30 9.00063 27.3304 7.72189 24.3282 7.72189C23.1968 7.72245 22.0197 7.90835 20.9192 8.40775C20.8239 10.7867 19.8108 12.619 18.6998 13.9271L23.5658 12.0066Z" fill="#4F4F4F"/>
<path d="M15.0621 12.6306L15.3972 7.11954L15.7023 12.1274C15.7023 12.1274 15.7028 12.1269 15.7028 12.1263L15.6861 12.6762L15.639 15.1076C18.8464 12.8797 23.097 6.93581 15.3972 0C15.3972 0 11.6473 3.10626 11.0959 7.11163C13.1652 8.55751 14.3825 10.8177 15.0621 12.6306Z" fill="#828282"/>
</svg>
