<svg width="18" height="18" viewBox="0 0 18 18" fill="none" xmlns="http://www.w3.org/2000/svg">
<path d="M6.50279 9.93049C6.50279 9.70501 6.31575 9.52234 6.08497 9.52234H4.62692C4.3964 9.52234 4.20932 9.70501 4.20932 9.93049V11.356C4.20932 11.5818 4.3964 11.7646 4.62692 11.7646H6.08497C6.31575 11.7646 6.50279 11.5818 6.50279 11.356V9.93049Z" fill="#828282"/>
<path d="M10.1466 9.93049C10.1466 9.70501 9.95956 9.52234 9.72923 9.52234H8.27099C8.04047 9.52234 7.85339 9.70501 7.85339 9.93049V11.356C7.85339 11.5818 8.04047 11.7646 8.27099 11.7646H9.72923C9.95956 11.7646 10.1466 11.5818 10.1466 11.356V9.93049Z" fill="#828282"/>
<path d="M13.7907 9.93049C13.7907 9.70501 13.6036 9.52234 13.3731 9.52234H11.915C11.6843 9.52234 11.4972 9.70501 11.4972 9.93049V11.356C11.4972 11.5818 11.6843 11.7646 11.915 11.7646H13.3731C13.6036 11.7646 13.7907 11.5818 13.7907 11.356V9.93049Z" fill="#828282"/>
<path d="M6.50279 13.4939C6.50279 13.2681 6.31575 13.0856 6.08497 13.0856H4.62692C4.3964 13.0856 4.20932 13.2681 4.20932 13.4939V14.9192C4.20932 15.1449 4.3964 15.3276 4.62692 15.3276H6.08497C6.31575 15.3276 6.50279 15.1448 6.50279 14.9192V13.4939Z" fill="#828282"/>
<path d="M10.1466 13.4939C10.1466 13.2681 9.95956 13.0856 9.72923 13.0856H8.27099C8.04047 13.0856 7.85339 13.2681 7.85339 13.4939V14.9192C7.85339 15.1449 8.04047 15.3276 8.27099 15.3276H9.72923C9.95956 15.3276 10.1466 15.1448 10.1466 14.9192V13.4939Z" fill="#828282"/>
<path d="M13.7907 13.4939C13.7907 13.2681 13.6036 13.0856 13.3733 13.0856H11.915C11.6843 13.0856 11.4972 13.2681 11.4972 13.4939V14.9192C11.4972 15.1449 11.6843 15.3276 11.915 15.3276H13.3733C13.6036 15.3276 13.7907 15.1448 13.7907 14.9192V13.4939Z" fill="#828282"/>
<path d="M16.3978 2.00422V4.18161C16.3978 5.16577 15.5813 5.95885 14.575 5.95885H13.4251C12.4187 5.95885 11.5914 5.16577 11.5914 4.18161V1.9964H6.40859V4.18161C6.40859 5.16577 5.58131 5.95885 4.57506 5.95885H3.42495C2.41867 5.95885 1.60221 5.16577 1.60221 4.18161V2.00422C0.722708 2.03014 -8.48723e-09 2.74176 -8.48723e-09 3.61644V16.377C-8.48723e-09 17.2681 0.738659 18 1.64999 18H16.35C17.26 18 18 17.2666 18 16.377V3.61644C18 2.74176 17.2773 2.03014 16.3978 2.00422ZM15.8637 15.5824C15.8637 15.9675 15.5444 16.2799 15.1504 16.2799H2.81816C2.42417 16.2799 2.10485 15.9675 2.10485 15.5824V8.99108C2.10485 8.60582 2.42413 8.29339 2.81816 8.29339H15.1504C15.5444 8.29339 15.8637 8.60582 15.8637 8.99108L15.8637 15.5824Z" fill="#828282"/>
<path d="M3.42091 4.79155H4.55832C4.90355 4.79155 5.18347 4.51824 5.18347 4.18067V0.611108C5.18347 0.273492 4.90355 0 4.55832 0H3.42091C3.07564 0 2.79576 0.273492 2.79576 0.611108V4.18067C2.79576 4.51824 3.07564 4.79155 3.42091 4.79155Z" fill="#828282"/>
<path d="M13.4105 4.79155H14.5479C14.8929 4.79155 15.1728 4.51824 15.1728 4.18067V0.611108C15.1729 0.273492 14.8929 0 14.5479 0H13.4105C13.0653 0 12.7854 0.273492 12.7854 0.611108V4.18067C12.7854 4.51824 13.0653 4.79155 13.4105 4.79155Z" fill="#828282"/>
</svg>
