<svg width="21" height="21" viewBox="0 0 21 21" fill="none" xmlns="http://www.w3.org/2000/svg">
<path d="M20.4001 10.5C20.4001 16.0251 15.9431 20.5 10.4501 20.5C4.95704 20.5 0.5 16.0251 0.5 10.5C0.5 4.9749 4.95704 0.5 10.4501 0.5C15.9431 0.5 20.4001 4.9749 20.4001 10.5Z" stroke="#F2F2F2"/>
<path fill-rule="evenodd" clip-rule="evenodd" d="M10.0554 15.1052H10.8756C10.8756 15.1052 11.1233 15.0779 11.2498 14.9409C11.3662 14.8151 11.3625 14.5789 11.3625 14.5789C11.3625 14.5789 11.3465 13.4731 11.8573 13.3102C12.3608 13.1498 13.0074 14.379 13.6927 14.8516C14.211 15.2093 14.6048 15.1309 14.6048 15.1309L16.4372 15.1052C16.4372 15.1052 17.3958 15.0459 16.9413 14.2886C16.9041 14.2266 16.6766 13.7284 15.5788 12.7046C14.4299 11.633 14.5837 11.8063 15.9678 9.95274C16.8107 8.82391 17.1477 8.13474 17.0425 7.83957C16.9421 7.55843 16.3221 7.63274 16.3221 7.63274L14.2588 7.64566C14.2588 7.64566 14.1059 7.62469 13.9925 7.69282C13.8816 7.75964 13.8103 7.91537 13.8103 7.91537C13.8103 7.91537 13.4837 8.78891 13.0482 9.53179C12.1294 11.0994 11.7621 11.1821 11.612 11.0848C11.2627 10.8579 11.3499 10.1734 11.3499 9.68715C11.3499 8.16805 11.5792 7.53466 10.9033 7.3707C10.6791 7.31623 10.514 7.2803 9.94044 7.27449C9.20425 7.26682 8.58114 7.27674 8.22832 7.45043C7.99361 7.56592 7.81254 7.82328 7.92282 7.83807C8.05918 7.85641 8.36803 7.92174 8.53177 8.14578C8.74321 8.43477 8.73575 9.08389 8.73575 9.08389C8.73575 9.08389 8.85721 10.8721 8.45205 11.0943C8.17393 11.2467 7.79242 10.9356 6.97334 9.51345C6.55364 8.78497 6.23677 7.97976 6.23677 7.97976C6.23677 7.97976 6.17567 7.82927 6.0667 7.74879C5.93444 7.65127 5.74965 7.6202 5.74965 7.6202L3.78902 7.63311C3.78902 7.63311 3.4947 7.64135 3.38665 7.76994C3.29053 7.8843 3.37902 8.12089 3.37902 8.12089C3.37902 8.12089 4.91398 11.7292 6.652 13.5476C8.24565 15.2147 10.0554 15.1052 10.0554 15.1052Z" fill="white"/>
</svg>
