<svg width="21" height="21" viewBox="0 0 21 21" fill="none" xmlns="http://www.w3.org/2000/svg">
<path d="M20.4001 10.5C20.4001 16.0251 15.9431 20.5 10.4501 20.5C4.95704 20.5 0.5 16.0251 0.5 10.5C0.5 4.9749 4.95704 0.5 10.4501 0.5C15.9431 0.5 20.4001 4.9749 20.4001 10.5Z" stroke="white"/>
<path d="M16.8511 7.54608C16.4033 7.74561 15.9215 7.88056 15.4163 7.94083C15.9321 7.63031 16.328 7.13898 16.5148 6.55257C16.0322 6.84025 15.4974 7.04895 14.9286 7.16144C14.473 6.67386 13.8238 6.36914 13.1049 6.36914C11.7257 6.36914 10.6071 7.49311 10.6071 8.87894C10.6071 9.07565 10.6292 9.26713 10.6721 9.45093C8.59615 9.34631 6.7555 8.34718 5.52342 6.82827C5.30845 7.19888 5.18514 7.63031 5.18514 8.09019C5.18514 8.96073 5.62644 9.72926 6.29631 10.1792C5.88705 10.1663 5.50163 10.0534 5.16502 9.86496C5.16483 9.87563 5.16483 9.8863 5.16483 9.89678C5.16483 11.1128 6.0262 12.1271 7.16867 12.3575C6.95929 12.4152 6.73817 12.4457 6.51072 12.4457C6.3494 12.4457 6.19311 12.4302 6.04073 12.401C6.35853 13.3978 7.28081 14.1235 8.37411 14.1439C7.51907 14.8172 6.44217 15.2183 5.27157 15.2183C5.07039 15.2183 4.87106 15.2065 4.67603 15.1831C5.78087 15.8955 7.09416 16.3108 8.50469 16.3108C13.0992 16.3108 15.6117 12.4865 15.6117 9.16962C15.6117 9.06087 15.6093 8.95249 15.6045 8.84506C16.0929 8.4913 16.5163 8.04939 16.8511 7.54608Z" fill="#F1F2F2"/>
</svg>
