<svg width="20" height="20" viewBox="0 0 20 20" fill="none" xmlns="http://www.w3.org/2000/svg">
<path d="M12.1842 12.4571L12.0959 12.3687C12.5798 11.8849 13.3315 11.7855 13.9244 12.1269L18.3651 14.6836C18.7769 14.9207 19.0493 15.3276 19.1116 15.7987L18.9877 15.8151L19.1116 15.7987C19.1739 16.2698 19.0166 16.7336 18.6807 17.0696L18.5975 16.9864L18.6807 17.0696L17.3627 18.3876L17.2743 18.2992L17.3627 18.3876C16.8662 18.884 16.1671 19.125 15.3236 19.125C14.507 19.125 13.5488 18.8997 12.488 18.4561C10.4158 17.5896 8.14224 15.9762 6.08298 13.917L6.17137 13.8286L6.08298 13.917C4.0238 11.8578 2.41044 9.58419 1.54387 7.51202L1.65919 7.46379L1.54387 7.51202C0.647577 5.3687 0.634116 3.6157 1.6124 2.63738L1.70079 2.72577L1.6124 2.63738L2.93035 1.3194L2.93035 1.3194C3.26634 0.983409 3.7301 0.825973 4.20126 0.888421L12.1842 12.4571ZM12.1842 12.4571L12.0959 12.3687L11.2212 13.2434L11.2212 13.2434C11.0332 13.4314 10.7369 13.4475 10.5316 13.2823L10.5316 13.2823C9.84565 12.7303 9.17005 12.1227 8.52368 11.4763L8.43529 11.5647L8.52368 11.4763C7.87731 10.83 7.2697 10.1544 6.71774 9.46845L6.62035 9.54681L6.71774 9.46844C6.55248 9.26309 6.5686 8.96676 6.75659 8.77881L6.7566 8.7788L7.63123 7.90413C7.63123 7.90413 7.63123 7.90412 7.63124 7.90412C8.11509 7.42031 8.21455 6.6686 7.87312 6.07563L5.31634 1.63497C5.07924 1.22317 4.67237 0.950759 4.2013 0.888426L12.1842 12.4571ZM18.2857 15.908L18.2857 15.908C18.3043 16.0489 18.2794 16.1877 18.2165 16.3094L12.5611 13.0817L12.685 12.9579C12.9028 12.74 13.2418 12.6952 13.5087 12.8489L17.9494 15.4057L18.0118 15.2973L17.9494 15.4057C18.1353 15.5127 18.2576 15.6953 18.2857 15.908ZM4.09195 1.71439L4.09197 1.71439C4.30468 1.74253 4.48727 1.86479 4.59429 2.05069L4.5943 2.0507L7.15107 6.49136L7.15108 6.49137C7.30481 6.75832 7.25996 7.09724 7.04214 7.31502L7.04214 7.31503L6.93731 7.41985L3.69204 1.78336C3.78706 1.73425 3.8921 1.70831 4.00032 1.70831C4.03062 1.70831 4.06125 1.71032 4.09195 1.71439ZM2.31253 7.19059L2.1972 7.23881L2.31253 7.19059C1.92419 6.26201 1.72592 5.43549 1.71201 4.75673C1.69809 4.07743 1.86854 3.55949 2.20154 3.22647L3.06461 2.36338L6.32719 8.02997L6.16746 8.1897L6.16746 8.1897C5.67871 8.67849 5.63589 9.45292 6.06861 9.99079L6.06862 9.9908C6.63948 10.7003 7.26728 11.3982 7.9345 12.0655L8.02289 11.9771L7.9345 12.0655C8.6018 12.7327 9.29978 13.3605 10.0092 13.9314L10.0876 13.834L10.0092 13.9314C10.547 14.3641 11.3215 14.3213 11.8103 13.8325L11.7219 13.7441L11.8103 13.8325L11.9504 13.6924L17.6351 16.9368L16.7735 17.7984C16.4405 18.1314 15.9226 18.3019 15.2433 18.2879C14.5646 18.274 13.738 18.0758 12.8095 17.6875C10.8434 16.8653 8.66271 15.3184 6.67216 13.3279C4.68161 11.3373 3.1347 9.15665 2.31253 7.19059Z" fill="white" stroke="white" stroke-width="0.25"/>
</svg>
