<svg width="67" height="24" viewBox="0 0 67 24" fill="none" xmlns="http://www.w3.org/2000/svg">
<path d="M13.6462 0.6V22.488C13.6462 22.68 13.6036 22.808 13.5183 22.872C13.4543 22.936 13.2089 22.9787 12.7823 23C12.3556 23 11.7689 23 11.0223 23L11.1182 15.16C11.1609 13.7733 11.2569 12.0133 11.4062 9.88C11.5556 7.74667 11.6622 6.296 11.7262 5.528L11.1823 7.448C10.3502 10.52 9.82758 12.344 9.61425 12.92L7.91825 17.848C7.85425 18.0187 7.73692 18.104 7.56625 18.104H6.44625L4.78225 12.92C4.50492 12.088 3.82225 9.67733 2.73425 5.688L2.70225 5.72C2.76625 6.38133 2.87292 7.74667 3.02225 9.816C3.17158 11.8853 3.25692 13.624 3.27825 15.032L3.34225 22.488C3.34225 22.68 3.28892 22.808 3.18225 22.872C3.09692 22.936 2.85158 22.9787 2.44625 23C2.04092 23 1.49692 23 0.81425 23V1.112C0.81425 0.898666 0.856917 0.76 0.94225 0.695999C1.02758 0.632 1.15558 0.6 1.32625 0.6H3.18225L6.25425 10.328C6.48892 11.0533 6.70225 11.768 6.89425 12.472C7.08625 13.1547 7.21425 13.624 7.27825 13.88C7.34225 13.624 7.45958 13.1547 7.63025 12.472C7.82225 11.7893 8.01425 11.1067 8.20625 10.424L11.0542 1.112C11.1183 0.919999 11.1823 0.792 11.2463 0.728001C11.3102 0.642667 11.4169 0.6 11.5662 0.6H13.6462Z" fill="#DF427A"/>
<path d="M18.0385 23.192C17.3985 23.192 16.9398 23.0427 16.6625 22.744C16.3852 22.424 16.2465 21.9653 16.2465 21.368C16.2465 20.856 16.4065 20.4293 16.7265 20.088C17.0678 19.7253 17.5052 19.544 18.0385 19.544C19.2118 19.544 19.7985 20.152 19.7985 21.368C19.7985 21.9013 19.6385 22.3387 19.3185 22.68C18.9985 23.0213 18.5718 23.192 18.0385 23.192ZM25.772 23.32C24.62 23.32 23.66 23.0747 22.892 22.584C22.1453 22.072 21.548 21.048 21.1 19.512C20.6733 17.9547 20.46 15.6933 20.46 12.728C20.46 9.336 20.7693 6.72267 21.388 4.888C22.0067 3.05333 22.764 1.82667 23.66 1.208C24.5773 0.589334 25.612 0.280001 26.764 0.280001C27.8307 0.280001 28.5987 0.450667 29.068 0.792C29.5373 1.13333 29.772 1.54933 29.772 2.04C29.772 2.616 29.6333 3.13867 29.356 3.608C28.6947 3.07467 28.0013 2.808 27.276 2.808C26.4867 2.808 25.7933 3.064 25.196 3.576C24.5987 4.06667 24.108 5.02667 23.724 6.456C23.3613 7.88533 23.18 9.93333 23.18 12.6C23.18 14.6907 23.308 16.312 23.564 17.464C23.82 18.616 24.1827 19.4053 24.652 19.832C25.1213 20.2587 25.6973 20.472 26.38 20.472C26.9773 20.472 27.5427 20.376 28.076 20.184C28.6093 19.9707 29.036 19.7253 29.356 19.448C29.612 20.0027 29.74 20.5253 29.74 21.016C29.74 21.656 29.3667 22.2 28.62 22.648C27.8733 23.096 26.924 23.32 25.772 23.32ZM33.3823 23.192C32.7423 23.192 32.2836 23.0427 32.0063 22.744C31.7289 22.424 31.5903 21.9653 31.5903 21.368C31.5903 20.856 31.7503 20.4293 32.0703 20.088C32.4116 19.7253 32.8489 19.544 33.3823 19.544C34.5556 19.544 35.1423 20.152 35.1423 21.368C35.1423 21.9013 34.9823 22.3387 34.6623 22.68C34.3423 23.0213 33.9156 23.192 33.3823 23.192ZM50.042 22.52C50.0847 22.712 50.0313 22.8507 49.882 22.936C49.7327 23.0213 49.4127 23.064 48.922 23.064C48.346 23.064 47.834 23.0427 47.386 23L46.042 17.304H40.474L39.226 22.552C39.162 22.744 39.0553 22.8827 38.906 22.968C38.778 23.032 38.4793 23.064 38.01 23.064C37.562 23.064 37.0287 23.032 36.41 22.968L42.138 0.952C42.202 0.653333 42.522 0.504 43.098 0.504C43.5887 0.504 43.994 0.536 44.314 0.6L50.042 22.52ZM45.466 14.968L44.378 10.36C43.7593 7.75733 43.386 5.69867 43.258 4.184C43.0233 6.08267 42.6393 8.14133 42.106 10.36L41.018 14.968H45.466ZM53.1948 23.192C52.5548 23.192 52.0961 23.0427 51.8188 22.744C51.5414 22.424 51.4028 21.9653 51.4028 21.368C51.4028 20.856 51.5628 20.4293 51.8828 20.088C52.2241 19.7253 52.6614 19.544 53.1948 19.544C54.3681 19.544 54.9548 20.152 54.9548 21.368C54.9548 21.9013 54.7948 22.3387 54.4748 22.68C54.1548 23.0213 53.7281 23.192 53.1948 23.192ZM61.6322 23.32C60.1389 23.32 58.9656 23.0213 58.1123 22.424C57.2589 21.8053 56.6296 20.7067 56.2242 19.128C55.8189 17.5493 55.6162 15.2773 55.6162 12.312C55.6162 9.09067 55.8829 6.60533 56.4162 4.856C56.9709 3.10667 57.7389 1.912 58.7203 1.272C59.7016 0.610667 60.9602 0.280001 62.4963 0.280001C63.5203 0.280001 64.3416 0.450667 64.9602 0.792C65.6002 1.112 65.9202 1.48533 65.9202 1.912C65.9202 2.424 65.8029 2.97867 65.5682 3.576C65.2696 3.34133 64.8962 3.16 64.4482 3.032C64.0002 2.88267 63.5203 2.808 63.0083 2.808C61.8776 2.808 60.9816 3.096 60.3203 3.672C59.6589 4.22667 59.1682 5.176 58.8482 6.52C58.5282 7.864 58.3682 9.73067 58.3682 12.12C58.3682 14.5733 58.4962 16.4293 58.7523 17.688C59.0083 18.9253 59.3709 19.7573 59.8403 20.184C60.3096 20.5893 60.9282 20.792 61.6962 20.792C62.2083 20.792 62.6243 20.7067 62.9443 20.536C63.2856 20.3653 63.5096 20.184 63.6163 19.992V12.024H61.2162V10.392C61.2162 10.0507 61.4189 9.88 61.8243 9.88H66.0162V21.88C64.8642 22.84 63.4029 23.32 61.6322 23.32Z" fill="#F2F2F2"/>
</svg>
